# xmcd
#
# Track frame offsets:
#	150
#	12920
#	29312
#	42877
#	56595
#	67607
#	83107
#	94002
#	108967
#	122477
#	146430
#	165490
#
# Disc length: 2522 seconds
#
# Revision: 0
# Processed by: cddbd v1.4b42PL1 Copyright (c) Steve Scherf et al.
# Submitted via: EasyCDDAExtractor 4.5.0.1
#
DISCID=8809d80c
DTITLE=Jimmy Witherspoon - Singin' The Blues
DYEAR=1958
DGENRE=Blues
TTITLE0=S.K. Blues
TTITLE1=When I've Been Drinkin'
TTITLE2=Then the Lights Go Out
TTITLE3=All That's Good
TTITLE4=Spoon's Blues
TTITLE5=It Ain't What You're Thinkin'
TTITLE6='Tain't Nobody's Business
TTITLE7=Wee Baby Blues
TTITLE8=Times Are Changing
TTITLE9=Sweet' Blues
TTITLE10=There's Good Rockin' Tonight
TTITLE11=Midnight Blues (Red Shirt)
EXTD=
EXTT0=
EXTT1=
EXTT2=
EXTT3=
EXTT4=
EXTT5=
EXTT6=
EXTT7=
EXTT8=
EXTT9=
EXTT10=
EXTT11=
PLAYORDER=
